<?xml version="1.0" encoding="UTF-8" standalone="no"?>
<!-- Created with Inkscape (http://www.inkscape.org/) -->

<svg
   width="21.166668mm"
   height="21.166649mm"
   viewBox="0 0 21.166668 21.166649"
   version="1.1"
   id="svg1109"
   inkscape:version="1.2.1 (9c6d41e410, 2022-07-14)"
   sodipodi:docname="veeries_logo_oficial.svg"
   xmlns:inkscape="http://www.inkscape.org/namespaces/inkscape"
   xmlns:sodipodi="http://sodipodi.sourceforge.net/DTD/sodipodi-0.dtd"
   xmlns="http://www.w3.org/2000/svg"
   xmlns:svg="http://www.w3.org/2000/svg">
  <sodipodi:namedview
     id="namedview1111"
     pagecolor="#616161"
     bordercolor="#ffffff"
     borderopacity="0.6745098"
     inkscape:pageshadow="2"
     inkscape:pageopacity="0"
     inkscape:pagecheckerboard="true"
     inkscape:document-units="mm"
     showgrid="false"
     inkscape:zoom="8.3856039"
     inkscape:cx="39.830167"
     inkscape:cy="27.547211"
     inkscape:window-width="1920"
     inkscape:window-height="1017"
     inkscape:window-x="1358"
     inkscape:window-y="-8"
     inkscape:window-maximized="1"
     inkscape:current-layer="svg1109"
     inkscape:showpageshadow="0"
     inkscape:deskcolor="#606060" />
  <defs
     id="defs1106" />
  <path
     style="fill:#d18711;fill-opacity:1;stroke-width:0.0371026"
     d="m 19.698344,21.128925 c -1.50059,-0.189266 -2.831136,-0.541506 -3.893989,-1.030868 -0.358458,-0.165043 -0.843509,-0.427602 -0.842698,-0.456155 3.11e-4,-0.0099 0.219105,-0.11481 0.486279,-0.233209 1.76429,-0.78185 3.397317,-2.072025 4.439341,-3.507308 l 0.227302,-0.313086 0.342049,0.95942 c 0.188128,0.527681 0.382188,1.077632 0.431244,1.222114 l 0.08919,0.262695 -0.33241,-0.02238 c -0.530962,-0.03574 -1.142729,-0.153845 -1.708369,-0.329803 -0.06359,-0.01978 -0.06829,-0.0089 -0.04284,0.09947 0.01572,0.06693 0.05089,0.170192 0.07815,0.22947 0.02726,0.05928 0.164808,0.44683 0.305658,0.861225 0.14085,0.414395 0.29604,0.866463 0.344867,1.004595 0.206497,0.584181 0.440851,1.285301 0.431561,1.291106 -0.0055,0.0034 -0.165412,-0.01334 -0.355337,-0.03729 z M 9.5689996,19.781825 C 7.5246167,19.625022 5.6224983,18.919545 4.0247196,17.725505 3.0756592,17.016261 2.2194677,16.113468 1.5888978,15.157105 1.3435219,14.784952 0.93244478,14.034593 0.80267208,13.721969 c -0.3455522,-0.832436 -0.5666178,-1.56876 -0.673233,-2.242399 -0.034353,-0.217064 -0.072244,-0.435025 -0.084201,-0.484358 -0.011956,-0.04933 -0.029409,-0.477182 -0.038783,-0.950777 -0.015542,-0.7852212 -0.00834,-0.9179762 0.081781,-1.5068922 C 0.47549288,6.0068691 1.742534,3.8697434 3.8077753,2.2637731 5.2839046,1.1159085 6.8533534,0.44141386 8.8416496,0.10038986 c 0.541235,-0.09283 0.639343,-0.098527 1.7249374,-0.1001649999 1.092049,-0.00165 1.182535,0.0034 1.764961,0.0983819999 3.051718,0.4976923 5.563025,2.05276594 7.225723,4.47437574 0.749,1.0908667 1.264044,2.3663232 1.528497,3.7851682 0.0876,0.469989 0.110186,2.1218652 0.03729,2.7267572 -0.143945,1.194366 -0.533968,2.382363 -1.111689,3.386172 l -0.152373,0.264752 -0.06667,-0.175056 c -0.03667,-0.09628 -0.138618,-0.393018 -0.22656,-0.659415 -0.08794,-0.266396 -0.192085,-0.573157 -0.231431,-0.681689 -0.03935,-0.108532 -0.143313,-0.415292 -0.231038,-0.681689 -0.08772,-0.266397 -0.199852,-0.597375 -0.249172,-0.735507 -0.04932,-0.138132 -0.162184,-0.46911 -0.250809,-0.735507 C 18.514696,10.800572 18.410499,10.493812 18.371775,10.38528 18.291525,10.160362 17.891099,8.9662358 17.71608,8.4299078 17.293641,7.1353898 17.167414,6.8031918 16.917895,6.3292678 16.383658,5.3145657 15.575766,4.456314 14.556936,3.8211394 14.222555,3.6126742 13.534711,3.2950498 13.132805,3.1635207 12.919309,3.0936514 12.51356,2.9916159 12.231141,2.9367747 11.780747,2.8493161 11.635144,2.8372284 11.046197,2.8384079 10.508245,2.8394662 10.294644,2.8553465 9.9718736,2.9181848 9.4365556,3.0224026 9.2911826,3.0576432 9.1085756,3.127467 8.9821196,3.1758217 7.2967012,3.886954 6.5762409,4.1959426 6.4707269,4.2411948 6.3067004,4.3109485 6.2117376,4.3509524 6.1167756,4.390955 5.543864,4.6348747 4.9386027,4.8929953 4.3333413,5.1511167 3.8196796,5.3623058 3.7971329,5.3623058 c -0.088044,0 -0.027222,0.095865 0.3381834,0.5330219 0.5055247,0.6047891 0.6454078,0.7750461 1.2381357,1.5069741 l 0.5043538,0.622798 -0.061149,0.184465 c -0.1323173,0.399149 -0.3040494,1.136131 -0.3560083,1.527791 -0.071346,0.5378202 -0.070361,1.6354182 0.00192,2.1479522 0.064462,0.45702 0.2286634,1.071505 0.4332673,1.621391 0.1323997,0.355832 0.6697404,1.401515 0.8393339,1.633371 0.042938,0.0587 0.1536271,0.211675 0.2459754,0.33994 1.3294365,1.846495 3.2446989,3.068012 5.5645959,3.548992 0.449943,0.09329 0.973365,0.157886 1.550758,0.191393 0.147426,0.0086 0.139863,0.01348 -0.191843,0.124941 -1.07191,0.36019 -2.913374,0.545577 -4.3356664,0.436489 z M 14.04443,18.686992 C 12.429266,18.464517 11.161206,18.009664 9.9335026,17.212403 9.5896456,16.989105 9.0845116,16.578007 8.7036876,16.211532 7.4232358,14.97932 6.579122,13.435762 6.2238706,11.676902 6.1297238,11.210777 6.1186851,11.074564 6.1177494,10.367341 c -9.62e-4,-0.7350802 0.00623,-0.8190392 0.1047497,-1.2216982 0.1029567,-0.420778 0.313709,-1.024823 0.4325291,-1.239681 0.078159,-0.141333 0.4549689,-0.396981 0.8804294,-0.59733 0.2728724,-0.128495 0.4338632,-0.177139 0.767374,-0.231867 1.248749,-0.204914 2.6492354,0.06982 3.5550874,0.697405 0.575909,0.398995 1.060889,1.010194 1.338241,1.686523 0.04265,0.103994 0.09312,0.221371 0.112154,0.260837 0.105583,0.218877 0.378487,1.1503982 0.575055,1.9628772 0.487502,2.015001 1.000178,3.142271 1.839629,4.044968 0.488813,0.525643 1.212692,1.050796 1.836818,1.332557 0.192786,0.08703 0.230739,0.117356 0.191843,0.153263 -0.244984,0.226164 -1.285579,0.93522 -1.851819,1.26182 -0.499729,0.288239 -0.546757,0.303994 -0.895759,0.300116 -0.182622,-0.002 -0.614465,-0.04259 -0.959651,-0.09014 z"
     id="path987" />
</svg>
